<svg width="332" height="36" viewBox="0 0 332 36" fill="none" xmlns="http://www.w3.org/2000/svg">
<path d="M7.82812 22.9766V35H0.796875V0.875H14.1094C16.6719 0.875 18.9219 1.34375 20.8594 2.28125C22.8125 3.21875 24.3125 4.55469 25.3594 6.28906C26.4062 8.00781 26.9297 9.96875 26.9297 12.1719C26.9297 15.5156 25.7812 18.1562 23.4844 20.0938C21.2031 22.0156 18.0391 22.9766 13.9922 22.9766H7.82812ZM7.82812 17.2812H14.1094C15.9688 17.2812 17.3828 16.8438 18.3516 15.9688C19.3359 15.0938 19.8281 13.8438 19.8281 12.2188C19.8281 10.5469 19.3359 9.19531 18.3516 8.16406C17.3672 7.13281 16.0078 6.60156 14.2734 6.57031H7.82812V17.2812ZM44.4141 22.5078H38.8125V35H31.7812V0.875H44.4609C48.4922 0.875 51.6016 1.77344 53.7891 3.57031C55.9766 5.36719 57.0703 7.90625 57.0703 11.1875C57.0703 13.5156 56.5625 15.4609 55.5469 17.0234C54.5469 18.5703 53.0234 19.8047 50.9766 20.7266L58.3594 34.6719V35H50.8125L44.4141 22.5078ZM38.8125 16.8125H44.4844C46.25 16.8125 47.6172 16.3672 48.5859 15.4766C49.5547 14.5703 50.0391 13.3281 50.0391 11.75C50.0391 10.1406 49.5781 8.875 48.6562 7.95312C47.75 7.03125 46.3516 6.57031 44.4609 6.57031H38.8125V16.8125ZM193.688 35V0.875H205.641C209.781 0.875 212.922 1.67188 215.062 3.26562C217.203 4.84375 218.273 7.16406 218.273 10.2266C218.273 11.8984 217.844 13.375 216.984 14.6562C216.125 15.9219 214.93 16.8516 213.398 17.4453C215.148 17.8828 216.523 18.7656 217.523 20.0938C218.539 21.4219 219.047 23.0469 219.047 24.9688C219.047 28.25 218 30.7344 215.906 32.4219C213.812 34.1094 210.828 34.9688 206.953 35H193.688ZM200.719 20.1406V29.3516H206.742C208.398 29.3516 209.688 28.9609 210.609 28.1797C211.547 27.3828 212.016 26.2891 212.016 24.8984C212.016 21.7734 210.398 20.1875 207.164 20.1406H200.719ZM200.719 15.1719H205.922C209.469 15.1094 211.242 13.6953 211.242 10.9297C211.242 9.38281 210.789 8.27344 209.883 7.60156C208.992 6.91406 207.578 6.57031 205.641 6.57031H200.719V15.1719ZM231.82 35H224.789V0.875H231.82V35ZM245.391 29.3516H260.32V35H238.359V0.875H245.391V29.3516ZM271.852 35H264.82V0.875H271.852V35ZM298.922 20.2109H285.422V29.3516H301.266V35H278.391V0.875H301.219V6.57031H285.422V14.7031H298.922V20.2109ZM318.023 22.5078H312.422V35H305.391V0.875H318.07C322.102 0.875 325.211 1.77344 327.398 3.57031C329.586 5.36719 330.68 7.90625 330.68 11.1875C330.68 13.5156 330.172 15.4609 329.156 17.0234C328.156 18.5703 326.633 19.8047 324.586 20.7266L331.969 34.6719V35H324.422L318.023 22.5078ZM312.422 16.8125H318.094C319.859 16.8125 321.227 16.3672 322.195 15.4766C323.164 14.5703 323.648 13.3281 323.648 11.75C323.648 10.1406 323.188 8.875 322.266 7.95312C321.359 7.03125 319.961 6.57031 318.07 6.57031H312.422V16.8125Z" fill="#95C11E"/>
<path d="M69.9141 35H62.8828V0.875H69.9141V35ZM85.6406 0.875L94.4062 25.625L103.125 0.875H112.359V35H105.305V25.6719L106.008 9.57031L96.7969 35H91.9688L82.7812 9.59375L83.4844 25.6719V35H76.4531V0.875H85.6406ZM127.688 0.875L136.453 25.625L145.172 0.875H154.406V35H147.352V25.6719L148.055 9.57031L138.844 35H134.016L124.828 9.59375L125.531 25.6719V35H118.5V0.875H127.688ZM188.578 18.7109C188.578 22.0703 187.984 25.0156 186.797 27.5469C185.609 30.0781 183.906 32.0312 181.688 33.4062C179.484 34.7812 176.953 35.4688 174.094 35.4688C171.266 35.4688 168.742 34.7891 166.523 33.4297C164.305 32.0703 162.586 30.1328 161.367 27.6172C160.148 25.0859 159.531 22.1797 159.516 18.8984V17.2109C159.516 13.8516 160.117 10.8984 161.32 8.35156C162.539 5.78906 164.25 3.82812 166.453 2.46875C168.672 1.09375 171.203 0.40625 174.047 0.40625C176.891 0.40625 179.414 1.09375 181.617 2.46875C183.836 3.82812 185.547 5.78906 186.75 8.35156C187.969 10.8984 188.578 13.8438 188.578 17.1875V18.7109ZM181.453 17.1641C181.453 13.5859 180.812 10.8672 179.531 9.00781C178.25 7.14844 176.422 6.21875 174.047 6.21875C171.688 6.21875 169.867 7.14062 168.586 8.98438C167.305 10.8125 166.656 13.5 166.641 17.0469V18.7109C166.641 22.1953 167.281 24.8984 168.562 26.8203C169.844 28.7422 171.688 29.7031 174.094 29.7031C176.453 29.7031 178.266 28.7812 179.531 26.9375C180.797 25.0781 181.438 22.375 181.453 18.8281V17.1641Z" fill="#FF6600"/>
</svg>
